<mxfile host="65bd71144e">
    <diagram id="5zHMOyZ5f0ENpmKn1fRv" name="Page-1">
        <mxGraphModel dx="1253" dy="764" grid="1" gridSize="10" guides="1" tooltips="1" connect="1" arrows="1" fold="1" page="1" pageScale="1" pageWidth="850" pageHeight="1100" math="0" shadow="0">
            <root>
                <mxCell id="0"/>
                <mxCell id="1" parent="0"/>
                <mxCell id="2" value="" style="strokeWidth=1;shadow=0;dashed=0;align=center;html=1;shape=mxgraph.mockup.containers.browserWindow;rSize=0;strokeColor=#666666;strokeColor2=#008cff;strokeColor3=#c4c4c4;mainText=,;recursiveResize=0;" vertex="1" parent="1">
                    <mxGeometry x="20" width="550" height="1310" as="geometry"/>
                </mxCell>
                <mxCell id="3" value="Baven| Home" style="strokeWidth=1;shadow=0;dashed=0;align=center;html=1;shape=mxgraph.mockup.containers.anchor;fontSize=17;fontColor=#666666;align=left;" vertex="1" parent="2">
                    <mxGeometry x="60" y="12" width="110" height="26" as="geometry"/>
                </mxCell>
                <mxCell id="4" value="https://www.Baven.com" style="strokeWidth=1;shadow=0;dashed=0;align=center;html=1;shape=mxgraph.mockup.containers.anchor;rSize=0;fontSize=17;fontColor=#666666;align=left;" vertex="1" parent="2">
                    <mxGeometry x="130" y="60" width="250" height="26" as="geometry"/>
                </mxCell>
                <mxCell id="5" value="" style="verticalLabelPosition=bottom;shadow=0;dashed=0;align=center;html=1;verticalAlign=top;strokeWidth=1;shape=mxgraph.mockup.graphics.simpleIcon;strokeColor=#999999;" vertex="1" parent="2">
                    <mxGeometry x="10" y="115" width="60" height="30" as="geometry"/>
                </mxCell>
                <mxCell id="6" value="Logo" style="text;html=1;strokeColor=none;fillColor=none;align=center;verticalAlign=middle;whiteSpace=wrap;rounded=0;" vertex="1" parent="2">
                    <mxGeometry x="10" y="115" width="60" height="30" as="geometry"/>
                </mxCell>
                <mxCell id="7" value="" style="rounded=0;whiteSpace=wrap;html=1;fillColor=none;" vertex="1" parent="2">
                    <mxGeometry y="145" width="550" height="40" as="geometry"/>
                </mxCell>
                <mxCell id="8" value="About Us" style="text;html=1;strokeColor=none;fillColor=none;align=center;verticalAlign=middle;whiteSpace=wrap;rounded=0;" vertex="1" parent="2">
                    <mxGeometry x="455" y="150" width="60" height="30" as="geometry"/>
                </mxCell>
                <mxCell id="9" value="" style="verticalLabelPosition=bottom;shadow=0;dashed=0;align=center;html=1;verticalAlign=top;strokeWidth=1;shape=mxgraph.mockup.containers.userMale;strokeColor2=#008cff;fillColor=none;" vertex="1" parent="2">
                    <mxGeometry x="380" y="115" width="30" height="30" as="geometry"/>
                </mxCell>
                <mxCell id="10" value="Welcome,&lt;br&gt;Sign in" style="text;html=1;strokeColor=none;fillColor=none;align=center;verticalAlign=middle;whiteSpace=wrap;rounded=0;" vertex="1" parent="2">
                    <mxGeometry x="410" y="115" width="60" height="30" as="geometry"/>
                </mxCell>
                <mxCell id="11" value="" style="verticalLabelPosition=bottom;shadow=0;dashed=0;align=center;html=1;verticalAlign=top;strokeWidth=1;shape=mxgraph.mockup.misc.shoppingCart;strokeColor=#999999;fillColor=none;" vertex="1" parent="2">
                    <mxGeometry x="470" y="110" width="30" height="30" as="geometry"/>
                </mxCell>
                <mxCell id="12" value="My Cart" style="text;html=1;strokeColor=none;fillColor=none;align=center;verticalAlign=middle;whiteSpace=wrap;rounded=0;" vertex="1" parent="2">
                    <mxGeometry x="490" y="110" width="60" height="30" as="geometry"/>
                </mxCell>
                <mxCell id="13" value="Blog" style="text;html=1;strokeColor=none;fillColor=none;align=center;verticalAlign=middle;whiteSpace=wrap;rounded=0;" vertex="1" parent="2">
                    <mxGeometry x="370" y="150" width="60" height="30" as="geometry"/>
                </mxCell>
                <mxCell id="14" value="Categories" style="rounded=1;whiteSpace=wrap;html=1;fillColor=none;" vertex="1" parent="2">
                    <mxGeometry x="20" y="155" width="90" height="20" as="geometry"/>
                </mxCell>
                <mxCell id="15" value="Home" style="text;html=1;strokeColor=none;fillColor=none;align=center;verticalAlign=middle;whiteSpace=wrap;rounded=0;" vertex="1" parent="2">
                    <mxGeometry x="120" y="150" width="60" height="30" as="geometry"/>
                </mxCell>
                <mxCell id="16" value="Books" style="text;html=1;strokeColor=none;fillColor=none;align=center;verticalAlign=middle;whiteSpace=wrap;rounded=0;" vertex="1" parent="2">
                    <mxGeometry x="190" y="150" width="60" height="30" as="geometry"/>
                </mxCell>
                <mxCell id="17" value="Readers Platform" style="text;html=1;strokeColor=none;fillColor=none;align=center;verticalAlign=middle;whiteSpace=wrap;rounded=0;" vertex="1" parent="2">
                    <mxGeometry x="257.5" y="150" width="105" height="30" as="geometry"/>
                </mxCell>
                <mxCell id="18" value="" style="triangle;whiteSpace=wrap;html=1;fillColor=none;" vertex="1" parent="2">
                    <mxGeometry x="530" y="220" width="20" height="40" as="geometry"/>
                </mxCell>
                <mxCell id="19" value="" style="triangle;whiteSpace=wrap;html=1;fillColor=none;rotation=-180;" vertex="1" parent="2">
                    <mxGeometry y="220" width="20" height="40" as="geometry"/>
                </mxCell>
                <mxCell id="20" value="&lt;font style=&quot;font-size: 17px;&quot;&gt;Main Content&lt;/font&gt;" style="text;html=1;strokeColor=none;fillColor=none;align=center;verticalAlign=middle;whiteSpace=wrap;rounded=0;" vertex="1" parent="2">
                    <mxGeometry x="160" y="225" width="230" height="30" as="geometry"/>
                </mxCell>
                <mxCell id="21" value="" style="verticalLabelPosition=bottom;shadow=0;dashed=0;align=center;html=1;verticalAlign=top;strokeWidth=1;shape=mxgraph.mockup.navigation.coverFlow;strokeColor=#999999;fontSize=17;fillColor=none;" vertex="1" parent="2">
                    <mxGeometry x="25" y="185" width="500" height="105" as="geometry"/>
                </mxCell>
                <mxCell id="22" value="" style="shape=mxgraph.mockup.containers.marginRect;rectMarginTop=10;strokeColor=#666666;strokeWidth=1;dashed=0;rounded=1;arcSize=5;recursiveResize=0;fontSize=17;fillColor=none;" vertex="1" parent="2">
                    <mxGeometry x="30" y="320" width="130" height="170" as="geometry"/>
                </mxCell>
                <mxCell id="23" value="Top Sellers" style="shape=rect;strokeColor=none;fillColor=#008cff;strokeWidth=1;dashed=0;rounded=1;arcSize=20;fontColor=#ffffff;fontSize=17;spacing=2;spacingTop=-2;align=left;autosize=1;spacingLeft=4;resizeWidth=0;resizeHeight=0;perimeter=none;" vertex="1" parent="22">
                    <mxGeometry x="5" width="95" height="30" as="geometry"/>
                </mxCell>
                <mxCell id="24" value="" style="verticalLabelPosition=bottom;shadow=0;dashed=0;align=center;html=1;verticalAlign=top;strokeWidth=1;shape=mxgraph.mockup.graphics.simpleIcon;strokeColor=#999999;fillColor=#ffffff;fontSize=17;" vertex="1" parent="22">
                    <mxGeometry x="5" y="40" width="50" height="50" as="geometry"/>
                </mxCell>
                <mxCell id="25" value="" style="verticalLabelPosition=bottom;shadow=0;dashed=0;align=center;html=1;verticalAlign=top;strokeWidth=1;shape=mxgraph.mockup.graphics.simpleIcon;strokeColor=#999999;fillColor=#ffffff;fontSize=17;" vertex="1" parent="22">
                    <mxGeometry x="70" y="40" width="50" height="50" as="geometry"/>
                </mxCell>
                <mxCell id="26" value="" style="verticalLabelPosition=bottom;shadow=0;dashed=0;align=center;html=1;verticalAlign=top;strokeWidth=1;shape=mxgraph.mockup.graphics.simpleIcon;strokeColor=#999999;fillColor=#ffffff;fontSize=17;" vertex="1" parent="22">
                    <mxGeometry x="5" y="100" width="50" height="50" as="geometry"/>
                </mxCell>
                <mxCell id="27" value="" style="verticalLabelPosition=bottom;shadow=0;dashed=0;align=center;html=1;verticalAlign=top;strokeWidth=1;shape=mxgraph.mockup.graphics.simpleIcon;strokeColor=#999999;fillColor=#ffffff;fontSize=17;" vertex="1" parent="22">
                    <mxGeometry x="70" y="100" width="50" height="50" as="geometry"/>
                </mxCell>
                <mxCell id="28" value="" style="shape=mxgraph.mockup.containers.marginRect;rectMarginTop=10;strokeColor=#666666;strokeWidth=1;dashed=0;rounded=1;arcSize=5;recursiveResize=0;fontSize=17;fillColor=none;" vertex="1" parent="2">
                    <mxGeometry x="200" y="320" width="150" height="190" as="geometry"/>
                </mxCell>
                <mxCell id="29" value="Shop Deals" style="shape=rect;strokeColor=none;fillColor=#008cff;strokeWidth=1;dashed=0;rounded=1;arcSize=20;fontColor=#ffffff;fontSize=17;spacing=2;spacingTop=-2;align=left;autosize=1;spacingLeft=4;resizeWidth=0;resizeHeight=0;perimeter=none;" vertex="1" parent="28">
                    <mxGeometry x="5" width="95" height="30" as="geometry"/>
                </mxCell>
                <mxCell id="30" value="" style="verticalLabelPosition=bottom;shadow=0;dashed=0;align=center;html=1;verticalAlign=top;strokeWidth=1;shape=mxgraph.mockup.graphics.simpleIcon;strokeColor=#999999;fillColor=#ffffff;fontSize=17;" vertex="1" parent="28">
                    <mxGeometry x="5" y="40" width="65" height="60" as="geometry"/>
                </mxCell>
                <mxCell id="31" value="" style="verticalLabelPosition=bottom;shadow=0;dashed=0;align=center;html=1;verticalAlign=top;strokeWidth=1;shape=mxgraph.mockup.graphics.simpleIcon;strokeColor=#999999;fillColor=#ffffff;fontSize=17;" vertex="1" parent="28">
                    <mxGeometry x="80" y="40" width="60" height="60" as="geometry"/>
                </mxCell>
                <mxCell id="32" value="" style="verticalLabelPosition=bottom;shadow=0;dashed=0;align=center;html=1;verticalAlign=top;strokeWidth=1;shape=mxgraph.mockup.graphics.simpleIcon;strokeColor=#999999;fillColor=#ffffff;fontSize=17;" vertex="1" parent="28">
                    <mxGeometry x="5" y="110" width="65" height="60" as="geometry"/>
                </mxCell>
                <mxCell id="33" value="" style="verticalLabelPosition=bottom;shadow=0;dashed=0;align=center;html=1;verticalAlign=top;strokeWidth=1;shape=mxgraph.mockup.graphics.simpleIcon;strokeColor=#999999;fillColor=#ffffff;fontSize=17;" vertex="1" parent="28">
                    <mxGeometry x="80" y="110" width="60" height="60" as="geometry"/>
                </mxCell>
                <mxCell id="34" value="" style="shape=mxgraph.mockup.containers.marginRect;rectMarginTop=10;strokeColor=#666666;strokeWidth=1;dashed=0;rounded=1;arcSize=5;recursiveResize=0;fontSize=17;fillColor=none;" vertex="1" parent="2">
                    <mxGeometry x="300" y="520" width="230" height="260" as="geometry"/>
                </mxCell>
                <mxCell id="35" value="Books" style="shape=rect;strokeColor=none;fillColor=#008cff;strokeWidth=1;dashed=0;rounded=1;arcSize=20;fontColor=#ffffff;fontSize=17;spacing=2;spacingTop=-2;align=left;autosize=1;spacingLeft=4;resizeWidth=0;resizeHeight=0;perimeter=none;" vertex="1" parent="34">
                    <mxGeometry x="5" width="70" height="30" as="geometry"/>
                </mxCell>
                <mxCell id="36" value="" style="verticalLabelPosition=bottom;shadow=0;dashed=0;align=center;html=1;verticalAlign=top;strokeWidth=1;shape=mxgraph.mockup.graphics.simpleIcon;strokeColor=#999999;fillColor=#ffffff;fontSize=17;" vertex="1" parent="34">
                    <mxGeometry x="10" y="40" width="50" height="50" as="geometry"/>
                </mxCell>
                <mxCell id="37" value="" style="verticalLabelPosition=bottom;shadow=0;dashed=0;align=center;html=1;verticalAlign=top;strokeWidth=1;shape=mxgraph.mockup.graphics.simpleIcon;strokeColor=#999999;fillColor=#ffffff;fontSize=17;" vertex="1" parent="34">
                    <mxGeometry x="85" y="40" width="50" height="50" as="geometry"/>
                </mxCell>
                <mxCell id="38" value="" style="verticalLabelPosition=bottom;shadow=0;dashed=0;align=center;html=1;verticalAlign=top;strokeWidth=1;shape=mxgraph.mockup.graphics.simpleIcon;strokeColor=#999999;fillColor=#ffffff;fontSize=17;" vertex="1" parent="34">
                    <mxGeometry x="160" y="40" width="50" height="50" as="geometry"/>
                </mxCell>
                <mxCell id="39" value="" style="verticalLabelPosition=bottom;shadow=0;dashed=0;align=center;html=1;verticalAlign=top;strokeWidth=1;shape=mxgraph.mockup.graphics.simpleIcon;strokeColor=#999999;fillColor=#ffffff;fontSize=17;" vertex="1" parent="34">
                    <mxGeometry x="10" y="115" width="50" height="50" as="geometry"/>
                </mxCell>
                <mxCell id="40" value="" style="verticalLabelPosition=bottom;shadow=0;dashed=0;align=center;html=1;verticalAlign=top;strokeWidth=1;shape=mxgraph.mockup.graphics.simpleIcon;strokeColor=#999999;fillColor=#ffffff;fontSize=17;" vertex="1" parent="34">
                    <mxGeometry x="85" y="115" width="50" height="50" as="geometry"/>
                </mxCell>
                <mxCell id="41" value="" style="verticalLabelPosition=bottom;shadow=0;dashed=0;align=center;html=1;verticalAlign=top;strokeWidth=1;shape=mxgraph.mockup.graphics.simpleIcon;strokeColor=#999999;fillColor=#ffffff;fontSize=17;" vertex="1" parent="34">
                    <mxGeometry x="160" y="115" width="50" height="50" as="geometry"/>
                </mxCell>
                <mxCell id="42" value="" style="verticalLabelPosition=bottom;shadow=0;dashed=0;align=center;html=1;verticalAlign=top;strokeWidth=1;shape=mxgraph.mockup.graphics.simpleIcon;strokeColor=#999999;fillColor=#ffffff;fontSize=17;" vertex="1" parent="34">
                    <mxGeometry x="10" y="190" width="50" height="50" as="geometry"/>
                </mxCell>
                <mxCell id="43" value="" style="verticalLabelPosition=bottom;shadow=0;dashed=0;align=center;html=1;verticalAlign=top;strokeWidth=1;shape=mxgraph.mockup.graphics.simpleIcon;strokeColor=#999999;fillColor=#ffffff;fontSize=17;" vertex="1" parent="34">
                    <mxGeometry x="85" y="190" width="50" height="50" as="geometry"/>
                </mxCell>
                <mxCell id="44" value="" style="verticalLabelPosition=bottom;shadow=0;dashed=0;align=center;html=1;verticalAlign=top;strokeWidth=1;shape=mxgraph.mockup.graphics.simpleIcon;strokeColor=#999999;fillColor=#ffffff;fontSize=17;" vertex="1" parent="34">
                    <mxGeometry x="160" y="190" width="50" height="50" as="geometry"/>
                </mxCell>
                <mxCell id="45" value="" style="shape=mxgraph.mockup.containers.marginRect;rectMarginTop=10;strokeColor=#666666;strokeWidth=1;dashed=0;rounded=1;arcSize=5;recursiveResize=0;fontSize=17;fillColor=none;" vertex="1" parent="2">
                    <mxGeometry x="45" y="520" width="230" height="260" as="geometry"/>
                </mxCell>
                <mxCell id="46" value="Baven Stationaries" style="shape=rect;strokeColor=none;fillColor=#008cff;strokeWidth=1;dashed=0;rounded=1;arcSize=20;fontColor=#ffffff;fontSize=17;spacing=2;spacingTop=-2;align=left;autosize=1;spacingLeft=4;resizeWidth=0;resizeHeight=0;perimeter=none;" vertex="1" parent="45">
                    <mxGeometry x="5" width="155" height="30" as="geometry"/>
                </mxCell>
                <mxCell id="47" value="" style="verticalLabelPosition=bottom;shadow=0;dashed=0;align=center;html=1;verticalAlign=top;strokeWidth=1;shape=mxgraph.mockup.graphics.simpleIcon;strokeColor=#999999;fillColor=#ffffff;fontSize=17;" vertex="1" parent="45">
                    <mxGeometry x="10" y="40" width="50" height="50" as="geometry"/>
                </mxCell>
                <mxCell id="48" value="" style="verticalLabelPosition=bottom;shadow=0;dashed=0;align=center;html=1;verticalAlign=top;strokeWidth=1;shape=mxgraph.mockup.graphics.simpleIcon;strokeColor=#999999;fillColor=#ffffff;fontSize=17;" vertex="1" parent="45">
                    <mxGeometry x="85" y="40" width="50" height="50" as="geometry"/>
                </mxCell>
                <mxCell id="49" value="" style="verticalLabelPosition=bottom;shadow=0;dashed=0;align=center;html=1;verticalAlign=top;strokeWidth=1;shape=mxgraph.mockup.graphics.simpleIcon;strokeColor=#999999;fillColor=#ffffff;fontSize=17;" vertex="1" parent="45">
                    <mxGeometry x="160" y="40" width="50" height="50" as="geometry"/>
                </mxCell>
                <mxCell id="50" value="" style="verticalLabelPosition=bottom;shadow=0;dashed=0;align=center;html=1;verticalAlign=top;strokeWidth=1;shape=mxgraph.mockup.graphics.simpleIcon;strokeColor=#999999;fillColor=#ffffff;fontSize=17;" vertex="1" parent="45">
                    <mxGeometry x="10" y="115" width="50" height="50" as="geometry"/>
                </mxCell>
                <mxCell id="51" value="" style="verticalLabelPosition=bottom;shadow=0;dashed=0;align=center;html=1;verticalAlign=top;strokeWidth=1;shape=mxgraph.mockup.graphics.simpleIcon;strokeColor=#999999;fillColor=#ffffff;fontSize=17;" vertex="1" parent="45">
                    <mxGeometry x="85" y="115" width="50" height="50" as="geometry"/>
                </mxCell>
                <mxCell id="52" value="" style="verticalLabelPosition=bottom;shadow=0;dashed=0;align=center;html=1;verticalAlign=top;strokeWidth=1;shape=mxgraph.mockup.graphics.simpleIcon;strokeColor=#999999;fillColor=#ffffff;fontSize=17;" vertex="1" parent="45">
                    <mxGeometry x="160" y="115" width="50" height="50" as="geometry"/>
                </mxCell>
                <mxCell id="53" value="" style="verticalLabelPosition=bottom;shadow=0;dashed=0;align=center;html=1;verticalAlign=top;strokeWidth=1;shape=mxgraph.mockup.graphics.simpleIcon;strokeColor=#999999;fillColor=#ffffff;fontSize=17;" vertex="1" parent="45">
                    <mxGeometry x="10" y="190" width="50" height="50" as="geometry"/>
                </mxCell>
                <mxCell id="54" value="" style="verticalLabelPosition=bottom;shadow=0;dashed=0;align=center;html=1;verticalAlign=top;strokeWidth=1;shape=mxgraph.mockup.graphics.simpleIcon;strokeColor=#999999;fillColor=#ffffff;fontSize=17;" vertex="1" parent="45">
                    <mxGeometry x="85" y="190" width="50" height="50" as="geometry"/>
                </mxCell>
                <mxCell id="55" value="" style="verticalLabelPosition=bottom;shadow=0;dashed=0;align=center;html=1;verticalAlign=top;strokeWidth=1;shape=mxgraph.mockup.graphics.simpleIcon;strokeColor=#999999;fillColor=#ffffff;fontSize=17;" vertex="1" parent="45">
                    <mxGeometry x="160" y="190" width="50" height="50" as="geometry"/>
                </mxCell>
                <mxCell id="56" value="" style="shape=mxgraph.mockup.containers.marginRect;rectMarginTop=10;strokeColor=#666666;strokeWidth=1;dashed=0;rounded=1;arcSize=5;recursiveResize=0;fontSize=17;fillColor=none;" vertex="1" parent="2">
                    <mxGeometry x="380" y="320" width="150" height="190" as="geometry"/>
                </mxCell>
                <mxCell id="57" value="Group" style="shape=rect;strokeColor=none;fillColor=#008cff;strokeWidth=1;dashed=0;rounded=1;arcSize=20;fontColor=#ffffff;fontSize=17;spacing=2;spacingTop=-2;align=left;autosize=1;spacingLeft=4;resizeWidth=0;resizeHeight=0;perimeter=none;" vertex="1" parent="56">
                    <mxGeometry x="5" width="90" height="30" as="geometry"/>
                </mxCell>
                <mxCell id="58" value="" style="verticalLabelPosition=bottom;shadow=0;dashed=0;align=center;html=1;verticalAlign=top;strokeWidth=1;shape=mxgraph.mockup.graphics.simpleIcon;strokeColor=#999999;fillColor=#ffffff;fontSize=17;" vertex="1" parent="56">
                    <mxGeometry x="5" y="40" width="65" height="60" as="geometry"/>
                </mxCell>
                <mxCell id="59" value="" style="verticalLabelPosition=bottom;shadow=0;dashed=0;align=center;html=1;verticalAlign=top;strokeWidth=1;shape=mxgraph.mockup.graphics.simpleIcon;strokeColor=#999999;fillColor=#ffffff;fontSize=17;" vertex="1" parent="56">
                    <mxGeometry x="80" y="40" width="60" height="60" as="geometry"/>
                </mxCell>
                <mxCell id="60" value="" style="verticalLabelPosition=bottom;shadow=0;dashed=0;align=center;html=1;verticalAlign=top;strokeWidth=1;shape=mxgraph.mockup.graphics.simpleIcon;strokeColor=#999999;fillColor=#ffffff;fontSize=17;" vertex="1" parent="56">
                    <mxGeometry x="5" y="110" width="65" height="60" as="geometry"/>
                </mxCell>
                <mxCell id="61" value="" style="verticalLabelPosition=bottom;shadow=0;dashed=0;align=center;html=1;verticalAlign=top;strokeWidth=1;shape=mxgraph.mockup.graphics.simpleIcon;strokeColor=#999999;fillColor=#ffffff;fontSize=17;" vertex="1" parent="56">
                    <mxGeometry x="80" y="110" width="60" height="60" as="geometry"/>
                </mxCell>
                <mxCell id="62" value="" style="verticalLabelPosition=bottom;shadow=0;dashed=0;align=center;html=1;verticalAlign=top;strokeWidth=1;shape=mxgraph.mockup.navigation.coverFlow;strokeColor=#999999;fontSize=17;fillColor=none;" vertex="1" parent="2">
                    <mxGeometry x="22.5" y="810" width="505" height="170" as="geometry"/>
                </mxCell>
                <mxCell id="63" value="Popular categories" style="text;html=1;strokeColor=none;fillColor=none;align=center;verticalAlign=middle;whiteSpace=wrap;rounded=0;fontSize=17;" vertex="1" parent="2">
                    <mxGeometry y="780" width="150" height="30" as="geometry"/>
                </mxCell>
                <mxCell id="64" value="" style="verticalLabelPosition=bottom;shadow=0;dashed=0;align=center;html=1;verticalAlign=top;strokeWidth=1;shape=mxgraph.mockup.graphics.simpleIcon;strokeColor=#999999;fontSize=17;fillColor=none;" vertex="1" parent="2">
                    <mxGeometry x="5" y="1050" width="540" height="70" as="geometry"/>
                </mxCell>
                <mxCell id="65" value="Best Sellers" style="text;html=1;strokeColor=none;fillColor=none;align=center;verticalAlign=middle;whiteSpace=wrap;rounded=0;fontSize=17;" vertex="1" parent="2">
                    <mxGeometry x="5" y="1010" width="105" height="30" as="geometry"/>
                </mxCell>
                <mxCell id="66" value="" style="rounded=1;whiteSpace=wrap;html=1;fontSize=17;fillColor=none;" vertex="1" parent="2">
                    <mxGeometry x="5" y="1175" width="540" height="100" as="geometry"/>
                </mxCell>
                <mxCell id="67" value="&lt;font style=&quot;font-size: 12px;&quot;&gt;Contact Us&lt;/font&gt;" style="text;html=1;strokeColor=none;fillColor=none;align=center;verticalAlign=middle;whiteSpace=wrap;rounded=0;fontSize=17;" vertex="1" parent="2">
                    <mxGeometry x="420" y="1180" width="80" height="30" as="geometry"/>
                </mxCell>
                <mxCell id="68" value="&lt;font style=&quot;font-size: 13px;&quot;&gt;Support and services&lt;/font&gt;" style="text;html=1;strokeColor=none;fillColor=none;align=center;verticalAlign=middle;whiteSpace=wrap;rounded=0;fontSize=14;" vertex="1" parent="2">
                    <mxGeometry x="250" y="1180" width="145" height="30" as="geometry"/>
                </mxCell>
                <mxCell id="69" value="About Us" style="text;html=1;strokeColor=none;fillColor=none;align=center;verticalAlign=middle;whiteSpace=wrap;rounded=0;fontSize=12;" vertex="1" parent="2">
                    <mxGeometry x="20" y="1180" width="60" height="30" as="geometry"/>
                </mxCell>
                <mxCell id="70" value="Visit Us At&amp;nbsp;" style="text;html=1;strokeColor=none;fillColor=none;align=center;verticalAlign=middle;whiteSpace=wrap;rounded=0;fontSize=12;" vertex="1" parent="2">
                    <mxGeometry x="140" y="1180" width="60" height="30" as="geometry"/>
                </mxCell>
                <mxCell id="71" value="X" style="ellipse;whiteSpace=wrap;html=1;aspect=fixed;fontSize=12;fillColor=none;" vertex="1" parent="2">
                    <mxGeometry x="420" y="1215" width="30" height="30" as="geometry"/>
                </mxCell>
                <mxCell id="72" value="In&lt;span style=&quot;color: rgba(0, 0, 0, 0); font-family: monospace; font-size: 0px; text-align: start;&quot;&gt;%3CmxGraphModel%3E%3Croot%3E%3CmxCell%20id%3D%220%22%2F%3E%3CmxCell%20id%3D%221%22%20parent%3D%220%22%2F%3E%3CmxCell%20id%3D%222%22%20value%3D%22X%22%20style%3D%22ellipse%3BwhiteSpace%3Dwrap%3Bhtml%3D1%3Baspect%3Dfixed%3BfontSize%3D12%3BfillColor%3Dnone%3B%22%20vertex%3D%221%22%20parent%3D%221%22%3E%3CmxGeometry%20x%3D%22550%22%20y%3D%221250%22%20width%3D%2230%22%20height%3D%2230%22%20as%3D%22geometry%22%2F%3E%3C%2FmxCell%3E%3C%2Froot%3E%3C%2FmxGraphModel%3E&lt;/span&gt;" style="ellipse;whiteSpace=wrap;html=1;aspect=fixed;fontSize=12;fillColor=none;" vertex="1" parent="2">
                    <mxGeometry x="460" y="1215" width="30" height="30" as="geometry"/>
                </mxCell>
                <mxCell id="73" value="T T" style="ellipse;whiteSpace=wrap;html=1;aspect=fixed;fontSize=12;fillColor=none;" vertex="1" parent="2">
                    <mxGeometry x="500" y="1215" width="30" height="30" as="geometry"/>
                </mxCell>
                <mxCell id="74" value="&lt;span style=&quot;background-color: initial; font-size: 10px; text-align: justify;&quot;&gt;x store yyy center&lt;/span&gt;" style="text;html=1;strokeColor=none;fillColor=none;align=left;verticalAlign=middle;whiteSpace=wrap;rounded=0;fontSize=12;" vertex="1" parent="2">
                    <mxGeometry x="140" y="1210" width="90" height="30" as="geometry"/>
                </mxCell>
                <mxCell id="75" value="&lt;div style=&quot;&quot;&gt;&lt;font style=&quot;font-size: 9px;&quot;&gt;Lorem ipsum dolor sit amet, consectetur adipisicing elit, sed do eiusmod tempor incididunt ut labore et dolore magna aliqua.&lt;/font&gt;&lt;br&gt;&lt;/div&gt;" style="text;html=1;strokeColor=none;fillColor=none;align=left;verticalAlign=middle;whiteSpace=wrap;rounded=0;fontSize=10;" vertex="1" parent="2">
                    <mxGeometry x="20" y="1210" width="120" height="60" as="geometry"/>
                </mxCell>
                <mxCell id="76" value="&lt;div style=&quot;&quot;&gt;&lt;span style=&quot;background-color: initial;&quot;&gt;- Privacy Policy&lt;/span&gt;&lt;/div&gt;&lt;div style=&quot;&quot;&gt;&lt;span style=&quot;background-color: initial;&quot;&gt;- Sales inquiru&lt;/span&gt;&lt;/div&gt;&lt;div style=&quot;&quot;&gt;&lt;span style=&quot;background-color: initial;&quot;&gt;- FAQ&lt;/span&gt;&lt;/div&gt;" style="text;html=1;strokeColor=none;fillColor=none;align=left;verticalAlign=middle;whiteSpace=wrap;rounded=0;fontSize=10;" vertex="1" parent="2">
                    <mxGeometry x="257.5" y="1215" width="120" height="35" as="geometry"/>
                </mxCell>
                <mxCell id="77" value="&lt;span style=&quot;color: rgb(240, 240, 240); font-size: 12px; text-align: center;&quot;&gt;Product Search&amp;nbsp;&lt;/span&gt;" style="strokeWidth=1;shadow=0;dashed=0;align=center;html=1;shape=mxgraph.mockup.forms.searchBox;strokeColor=#999999;mainText=;strokeColor2=#008cff;fontColor=#666666;fontSize=17;align=left;spacingLeft=3;fillColor=none;" vertex="1" parent="2">
                    <mxGeometry x="260" y="117.5" width="110" height="25" as="geometry"/>
                </mxCell>
                <mxCell id="78" value="" style="verticalLabelPosition=bottom;shadow=0;dashed=0;align=center;html=1;verticalAlign=top;strokeWidth=1;shape=mxgraph.mockup.forms.splitter;strokeColor=#999999;fontSize=20;fillColor=none;" vertex="1" parent="2">
                    <mxGeometry x="80" y="1124" width="350" height="10" as="geometry"/>
                </mxCell>
                <mxCell id="79" value="" style="triangle;whiteSpace=wrap;html=1;fillColor=none;rotation=-180;" vertex="1" parent="2">
                    <mxGeometry x="5" y="885" width="10" height="20" as="geometry"/>
                </mxCell>
                <mxCell id="80" value="" style="triangle;whiteSpace=wrap;html=1;fillColor=none;" vertex="1" parent="2">
                    <mxGeometry x="535" y="885" width="10" height="20" as="geometry"/>
                </mxCell>
                <mxCell id="81" value="" style="strokeWidth=1;shadow=0;dashed=0;align=center;html=1;shape=mxgraph.mockup.forms.rrect;rSize=0;strokeColor=#999999;fillColor=#ffffff;fontSize=9;" vertex="1" parent="1">
                    <mxGeometry x="590" y="30" width="180" height="300" as="geometry"/>
                </mxCell>
                <mxCell id="82" value="Sign In" style="strokeWidth=1;shadow=0;dashed=0;align=center;html=1;shape=mxgraph.mockup.forms.anchor;fontSize=12;fontColor=#666666;align=left;resizeWidth=1;spacingLeft=0;fillColor=none;" vertex="1" parent="81">
                    <mxGeometry width="90" height="20" relative="1" as="geometry">
                        <mxPoint x="10" y="10" as="offset"/>
                    </mxGeometry>
                </mxCell>
                <mxCell id="83" value="" style="shape=line;strokeColor=#ddeeff;strokeWidth=2;html=1;resizeWidth=1;fontSize=9;fillColor=none;" vertex="1" parent="81">
                    <mxGeometry width="162" height="10" relative="1" as="geometry">
                        <mxPoint x="10" y="30" as="offset"/>
                    </mxGeometry>
                </mxCell>
                <mxCell id="84" value="Email:" style="strokeWidth=1;shadow=0;dashed=0;align=center;html=1;shape=mxgraph.mockup.forms.anchor;fontSize=12;fontColor=#666666;align=left;resizeWidth=1;spacingLeft=0;fillColor=none;" vertex="1" parent="81">
                    <mxGeometry width="90" height="20" relative="1" as="geometry">
                        <mxPoint x="10" y="40" as="offset"/>
                    </mxGeometry>
                </mxCell>
                <mxCell id="85" value="johndoe@gmail.com" style="strokeWidth=1;shadow=0;dashed=0;align=center;html=1;shape=mxgraph.mockup.forms.rrect;rSize=0;strokeColor=#999999;fontColor=#666666;align=left;spacingLeft=5;resizeWidth=1;fontSize=9;fillColor=none;" vertex="1" parent="81">
                    <mxGeometry width="135" height="25" relative="1" as="geometry">
                        <mxPoint x="10" y="60" as="offset"/>
                    </mxGeometry>
                </mxCell>
                <mxCell id="86" value="Password:" style="strokeWidth=1;shadow=0;dashed=0;align=center;html=1;shape=mxgraph.mockup.forms.anchor;fontSize=12;fontColor=#666666;align=left;resizeWidth=1;spacingLeft=0;fillColor=none;" vertex="1" parent="81">
                    <mxGeometry width="90" height="20" relative="1" as="geometry">
                        <mxPoint x="10" y="95" as="offset"/>
                    </mxGeometry>
                </mxCell>
                <mxCell id="87" value="********" style="strokeWidth=1;shadow=0;dashed=0;align=center;html=1;shape=mxgraph.mockup.forms.rrect;rSize=0;strokeColor=#999999;fontColor=#666666;align=left;spacingLeft=5;resizeWidth=1;fontSize=9;fillColor=none;" vertex="1" parent="81">
                    <mxGeometry width="135" height="25" relative="1" as="geometry">
                        <mxPoint x="10" y="115" as="offset"/>
                    </mxGeometry>
                </mxCell>
                <mxCell id="88" value="SIGN IN" style="strokeWidth=1;shadow=0;dashed=0;align=center;html=1;shape=mxgraph.mockup.forms.rrect;rSize=5;strokeColor=none;fontColor=#ffffff;fillColor=#66bbff;fontSize=16;fontStyle=1;" vertex="1" parent="81">
                    <mxGeometry y="1" width="80" height="30" relative="1" as="geometry">
                        <mxPoint x="20" y="-150" as="offset"/>
                    </mxGeometry>
                </mxCell>
                <mxCell id="89" value="Forgot Password?" style="strokeWidth=1;shadow=0;dashed=0;align=center;html=1;shape=mxgraph.mockup.forms.anchor;fontSize=12;fontColor=#9999ff;align=left;spacingLeft=0;fontStyle=4;resizeWidth=1;fillColor=none;" vertex="1" parent="81">
                    <mxGeometry y="1" width="135" height="20" relative="1" as="geometry">
                        <mxPoint x="10" y="-110" as="offset"/>
                    </mxGeometry>
                </mxCell>
                <mxCell id="90" value="" style="shape=line;strokeColor=#ddeeff;strokeWidth=2;html=1;resizeWidth=1;fontSize=9;fillColor=none;" vertex="1" parent="81">
                    <mxGeometry y="1" width="162" height="10" relative="1" as="geometry">
                        <mxPoint x="10" y="-90" as="offset"/>
                    </mxGeometry>
                </mxCell>
                <mxCell id="91" value="New User" style="strokeWidth=1;shadow=0;dashed=0;align=center;html=1;shape=mxgraph.mockup.forms.anchor;fontSize=12;fontColor=#666666;align=left;spacingLeft=0;resizeWidth=1;fillColor=none;" vertex="1" parent="81">
                    <mxGeometry y="1" width="135" height="20" relative="1" as="geometry">
                        <mxPoint x="10" y="-70" as="offset"/>
                    </mxGeometry>
                </mxCell>
                <mxCell id="92" value="SIGN UP" style="strokeWidth=1;shadow=0;dashed=0;align=center;html=1;shape=mxgraph.mockup.forms.rrect;rSize=5;strokeColor=none;fontColor=#ffffff;fillColor=#66bbff;fontSize=16;fontStyle=1;" vertex="1" parent="81">
                    <mxGeometry y="1" width="80" height="30" relative="1" as="geometry">
                        <mxPoint x="20" y="-50" as="offset"/>
                    </mxGeometry>
                </mxCell>
            </root>
        </mxGraphModel>
    </diagram>
</mxfile>